<?xml version="1.0" encoding="utf-8"?>
<!-- Generator: Adobe Illustrator 23.0.2, SVG Export Plug-In . SVG Version: 6.00 Build 0)  -->
<svg version="1.1" id="Capa_1" xmlns="http://www.w3.org/2000/svg" xmlns:xlink="http://www.w3.org/1999/xlink" x="0px" y="0px"
	 viewBox="0 0 444.8 420.3" style="enable-background:new 0 0 444.8 420.3;" xml:space="preserve">
<style type="text/css">
	.st0{fill:#FFFFFF;}
</style>
<g>
	<path class="st0" d="M434.3,223.8L248.4,409.7c-7,7-15.7,10.6-26,10.6c-10.5,0-19-3.5-25.7-10.6L10.8,223.8
		C3.6,216.6,0,207.9,0,197.8c0-9.9,3.6-18.5,10.8-25.7l21.4-21.4c6.9-7.2,15.4-10.9,25.7-10.9c10.3,0,18.8,3.6,25.7,10.9l83.9,83.7
		v-201c0-9.9,3.6-17.9,10.7-24.1c7.1-6.2,15.8-9.3,25.8-9.3h36.5c10.1,0,18.7,3.1,25.8,9.3c7.1,6.2,10.7,14.2,10.7,24.1v201
		l83.9-83.7c6.8-7.2,15.4-10.9,25.7-10.9c10.1,0,18.7,3.6,26,10.9l21.4,21.4c7,7.4,10.6,16,10.6,25.7
		C444.8,207.7,441.3,216.4,434.3,223.8z"/>
</g>
</svg>
