<?xml version="1.0" encoding="utf-8"?>
<!-- Generator: Adobe Illustrator 23.0.2, SVG Export Plug-In . SVG Version: 6.00 Build 0)  -->
<svg version="1.1" id="Layer_1" xmlns="http://www.w3.org/2000/svg" xmlns:xlink="http://www.w3.org/1999/xlink" x="0px" y="0px"
	 viewBox="0 0 200 350" style="enable-background:new 0 0 200 350;" xml:space="preserve">
<style type="text/css">
	.st0{fill:#FF4F19;}
	.st1{fill:#E3001E;}
	.st2{fill:#5D647F;}
	.st3{fill:#C10019;}
	.st4{fill:#FFCD00;}
</style>
<g>
	<g>
		<path class="st0" d="M188,0H12C5.4,0,0,7.5,0,16.7v316.7c0,9.2,5.4,16.7,12,16.7h176c6.6,0,12-7.5,12-16.7V16.7
			C200,7.5,194.6,0,188,0z"/>
	</g>
	<g>
		<path class="st1" d="M19.9,0H12C5.4,0,0,7.5,0,16.7v316.7c0,9.2,5.4,16.7,12,16.7h7.9V0z"/>
	</g>
	<g>
		<path class="st2" d="M172,0h-40c-2.2,0-4,2.5-4,5.6v83.3c0,2,0.8,3.8,2,4.8c1.3,1,2.8,1,4-0.1l17.9-15l17.9,15
			c0.6,0.5,1.3,0.8,2.1,0.8c0.7,0,1.4-0.2,2-0.7c1.3-1,2-2.8,2-4.8V5.6C176,2.5,174.2,0,172,0z"/>
	</g>
	<g>
		<g>
			<path class="st3" d="M20,327.8c-2.2,0-4-2.5-4-5.6V27.8c0-3.1,1.8-5.6,4-5.6s4,2.5,4,5.6v294.4C24,325.3,22.2,327.8,20,327.8z"/>
		</g>
	</g>
	<g>
		<path class="st4" d="M149.9,233.3h-0.3c0-0.2,0-0.4-0.1-0.6l-22.6-99.6c2.8-0.7,5-4.1,5-8.2c0-4.6-2.7-8.3-6-8.3h-32
			c-3.3,0-6,3.7-6,8.3c0,4.1,2.2,7.5,5,8.2l-22.6,99.6c0,0.2-0.1,0.4-0.1,0.6h-0.3c-3.3,0-6,3.7-6,8.3s2.7,8.3,6,8.3h16
			c3.3,0,6-3.7,6-8.3c0-4.1-2.2-7.5-5-8.2l4.5-19.6h37.1l4.5,19.6c-2.8,0.7-5,4.1-5,8.2c0,4.6,2.7,8.3,6,8.3h16c3.3,0,6-3.7,6-8.3
			S153.2,233.3,149.9,233.3z M96.4,191.7l13.1-57.8c0-0.2,0.1-0.4,0.1-0.6h0.6c0,0.2,0,0.4,0.1,0.6l13.1,57.8H96.4z"/>
	</g>
</g>
</svg>
